<svg width="512" height="512" viewBox="0 0 512 512" fill="none" xmlns="http://www.w3.org/2000/svg">
<path d="M256 0C114.618 0 0 114.618 0 256C0 397.382 114.618 512 256 512C397.382 512 512 397.382 512 256C512 114.618 397.382 0 256 0ZM256 469.333C138.182 469.333 42.667 373.818 42.667 256C42.667 138.182 138.182 42.667 256 42.667C373.818 42.667 469.333 138.182 469.333 256C469.333 373.818 373.818 469.333 256 469.333Z" fill="white"/>
<path d="M347.582 198.248L256 289.83L164.418 198.248C156.087 189.917 142.579 189.917 134.248 198.248C125.917 206.579 125.917 220.087 134.248 228.418L240.915 335.085C249.246 343.416 262.754 343.416 271.085 335.085L377.752 228.418C386.083 220.087 386.083 206.579 377.752 198.248C369.42 189.917 355.913 189.917 347.582 198.248Z" fill="white"/>
</svg>
